<svg width="129" height="129" viewBox="0 0 129 129" fill="none" xmlns="http://www.w3.org/2000/svg">
<g filter="url(#filter0_d_111_2089)">
<rect x="4.5" y="0.415527" width="120" height="120" rx="60" fill="#3F6DE4"/>
<path d="M105.777 65.1084C105.777 87.9208 87.2839 99.4045 64.4715 99.4045C41.6591 99.4045 23.166 87.9208 23.166 65.1084C23.166 42.296 41.6591 21.4268 64.4715 21.4268C87.2839 21.4268 105.777 42.296 105.777 65.1084Z" fill="#D1D5DB"/>
<path d="M56.4704 88.6264C53.7125 87.9052 52.5343 79.8381 52.4319 76.9102H58.1161C56.3276 81.2812 57.2768 88.8373 56.4704 88.6264Z" fill="white"/>
<path d="M71.9486 88.6264C74.7066 87.9052 75.8848 79.8381 75.9872 76.9102H70.303C72.0915 81.2812 71.1422 88.8373 71.9486 88.6264Z" fill="white"/>
<ellipse cx="50.5167" cy="54.6596" rx="3.70379" ry="4.60249" fill="#111827"/>
<ellipse cx="78.4263" cy="54.6596" rx="3.70379" ry="4.60249" fill="#111827"/>
<path fill-rule="evenodd" clip-rule="evenodd" d="M64.4717 75.4904C62.6153 77.1604 59.9381 78.2088 56.9616 78.2088C51.3568 78.2088 46.8132 74.4916 46.8132 69.9062C46.8132 65.3207 51.3568 61.6035 56.9616 61.6035C59.9382 61.6035 62.6154 62.6519 64.4717 64.3219C66.3281 62.6519 69.0053 61.6036 71.9818 61.6036C77.5866 61.6036 82.1302 65.3208 82.1302 69.9062C82.1302 74.4916 77.5866 78.2089 71.9818 78.2089C69.0053 78.2089 66.328 77.1605 64.4717 75.4904Z" fill="#FDECBA"/>
<ellipse cx="64.4717" cy="64.1149" rx="5.20631" ry="2.51138" fill="#515151"/>
<path fill-rule="evenodd" clip-rule="evenodd" d="M50.4414 61.9515C54.4642 61.9515 57.7253 58.6904 57.7253 54.6676C57.7253 50.6449 54.4642 47.3838 50.4414 47.3838C46.4187 47.3838 43.1576 50.6449 43.1576 54.6676C43.1576 58.6904 46.4187 61.9515 50.4414 61.9515ZM50.4414 64.0921C55.6464 64.0921 59.8659 59.8726 59.8659 54.6676C59.8659 49.4626 55.6464 45.2432 50.4414 45.2432C45.2364 45.2432 41.017 49.4626 41.017 54.6676C41.017 59.8726 45.2364 64.0921 50.4414 64.0921Z" fill="#6B7280"/>
<path fill-rule="evenodd" clip-rule="evenodd" d="M45.6724 60.8473C46.1176 61.2363 46.1631 61.9124 45.7742 62.3575C44.0208 64.3644 40.6365 67.206 36.524 68.3045C34.4487 68.8588 32.1697 68.9732 29.832 68.2894C27.492 67.6049 25.1648 66.1416 22.9638 63.6534C22.5722 63.2106 22.6136 62.5342 23.0564 62.1426C23.4991 61.7509 24.1755 61.7923 24.5672 62.2351C26.5416 64.4672 28.5356 65.6799 30.4329 66.2348C32.3325 66.7905 34.2069 66.7078 35.9716 66.2364C39.5389 65.2836 42.5805 62.7594 44.1622 60.9491C44.5511 60.504 45.2273 60.4584 45.6724 60.8473Z" fill="#6B7280"/>
</g>
<defs>
<filter id="filter0_d_111_2089" x="0.5" y="0.415527" width="128" height="128" filterUnits="userSpaceOnUse" color-interpolation-filters="sRGB">
<feFlood flood-opacity="0" result="BackgroundImageFix"/>
<feColorMatrix in="SourceAlpha" type="matrix" values="0 0 0 0 0 0 0 0 0 0 0 0 0 0 0 0 0 0 127 0" result="hardAlpha"/>
<feOffset dy="4"/>
<feGaussianBlur stdDeviation="2"/>
<feComposite in2="hardAlpha" operator="out"/>
<feColorMatrix type="matrix" values="0 0 0 0 0 0 0 0 0 0 0 0 0 0 0 0 0 0 0.25 0"/>
<feBlend mode="normal" in2="BackgroundImageFix" result="effect1_dropShadow_111_2089"/>
<feBlend mode="normal" in="SourceGraphic" in2="effect1_dropShadow_111_2089" result="shape"/>
</filter>
</defs>
</svg>
